<svg width="47" height="46" viewBox="0 0 47 46" fill="none" xmlns="http://www.w3.org/2000/svg">
<g clip-path="url(#clip0_60_2267)">
<path fill-rule="evenodd" clip-rule="evenodd" d="M23.5 42C33.9934 42 42.5 33.4934 42.5 23C42.5 12.5066 33.9934 4 23.5 4C13.0066 4 4.5 12.5066 4.5 23C4.5 33.4934 13.0066 42 23.5 42ZM24.016 14.22C24.408 14.108 24.996 14.052 25.836 14.052H26.704C27.544 14.052 28.16 14.136 28.524 14.304C28.888 14.472 29.084 14.836 29.084 15.34C29.084 15.4208 29.0775 15.5015 29.0708 15.5854C29.0636 15.676 29.056 15.7702 29.056 15.872V16.404C29.056 16.74 29.084 16.992 29.14 17.16C29.196 17.328 29.364 17.412 29.588 17.412C29.812 17.412 30.064 17.272 30.344 16.936C30.624 16.6 30.876 16.208 31.1 15.76C31.324 15.312 31.492 14.836 31.66 14.332C31.8 13.828 31.884 13.408 31.884 13.072C31.884 12.68 31.8 12.428 31.688 12.316C31.548 12.204 31.324 12.12 31.044 12.12C30.8514 12.12 30.6588 12.1268 30.4628 12.1336C30.26 12.1408 30.0536 12.148 29.84 12.148H28.58C28.3764 12.148 28.1729 12.1555 27.9772 12.1628C27.796 12.1695 27.6215 12.176 27.46 12.176H26.676H20.488C20.4072 12.176 20.3265 12.1825 20.2426 12.1892C20.152 12.1965 20.0578 12.204 19.956 12.204C19.76 12.232 19.592 12.288 19.424 12.372C19.256 12.456 19.088 12.568 18.976 12.708C18.864 12.876 18.808 13.072 18.808 13.296C18.808 13.52 18.836 13.688 18.948 13.828C19.032 13.968 19.172 14.024 19.368 14.024C19.62 14.024 19.76 14.164 19.76 14.416C19.76 14.472 19.753 14.528 19.746 14.584C19.739 14.64 19.732 14.696 19.732 14.752C19.718 14.808 19.704 14.871 19.69 14.934C19.676 14.997 19.662 15.06 19.648 15.116L16.652 29.144C16.54 29.564 16.428 29.844 16.316 29.956C16.204 30.096 16.064 30.18 15.924 30.208C15.252 30.376 14.944 30.656 14.944 31.076C14.944 31.692 15.364 32 16.232 32H19.284C19.788 32 20.264 31.944 20.684 31.804C21.076 31.664 21.3 31.356 21.3 30.908C21.3 30.684 21.216 30.516 21.048 30.432C20.88 30.348 20.74 30.292 20.656 30.264C20.544 30.264 20.432 30.208 20.32 30.124C20.208 30.04 20.152 29.9 20.152 29.676C20.152 29.592 20.18 29.424 20.236 29.144L21.748 22.256C21.9471 22.2892 22.1758 22.3125 22.4223 22.3377C22.5917 22.355 22.7695 22.3732 22.952 22.396C23.1856 22.4252 23.4268 22.4468 23.6717 22.4687C23.8964 22.4888 24.1242 22.5092 24.352 22.536C24.7721 22.5885 25.1922 22.6164 25.5892 22.6428C25.6156 22.6445 25.6419 22.6463 25.668 22.648C26.06 22.704 26.396 22.704 26.676 22.704C27.012 22.704 27.32 22.564 27.572 22.256C27.796 21.976 27.936 21.584 27.936 21.08C27.936 20.576 27.572 20.324 26.872 20.324C26.8217 20.324 26.76 20.3297 26.6921 20.3359C26.609 20.3435 26.5165 20.352 26.424 20.352C26.2911 20.352 26.088 20.3695 25.8426 20.3907C25.7778 20.3963 25.7101 20.4022 25.64 20.408C25.304 20.436 24.856 20.464 24.296 20.492C24.1409 20.4998 23.973 20.5075 23.7922 20.5159C23.32 20.5377 22.7599 20.5635 22.112 20.604L23.372 14.668C23.4 14.5 23.624 14.332 24.016 14.22Z" fill="white"/>
</g>
<rect x="2.5" y="2" width="42" height="42" rx="21" stroke="white" stroke-opacity="0.6" stroke-width="4"/>
<defs>
<clipPath id="clip0_60_2267">
<rect x="4.5" y="4" width="38" height="38" rx="19" fill="white"/>
</clipPath>
</defs>
</svg>
