<svg width="40" height="32" viewBox="0 0 40 32" fill="none" xmlns="http://www.w3.org/2000/svg">
<path d="M29 15H11M24 7V11M16 7V11M15.8 27H24.2C25.8802 27 26.7202 27 27.362 26.673C27.9265 26.3854 28.3854 25.9265 28.673 25.362C29 24.7202 29 23.8802 29 22.2V13.8C29 12.1198 29 11.2798 28.673 10.638C28.3854 10.0735 27.9265 9.6146 27.362 9.32698C26.7202 9 25.8802 9 24.2 9H15.8C14.1198 9 13.2798 9 12.638 9.32698C12.0735 9.6146 11.6146 10.0735 11.327 10.638C11 11.2798 11 12.1198 11 13.8V22.2C11 23.8802 11 24.7202 11.327 25.362C11.6146 25.9265 12.0735 26.3854 12.638 26.673C13.2798 27 14.1198 27 15.8 27Z" stroke="black" stroke-width="2" stroke-linecap="round" stroke-linejoin="round"/>
</svg>
