<svg width="40" height="32" viewBox="0 0 40 32" fill="none" xmlns="http://www.w3.org/2000/svg">
<path d="M17 26V18.6C17 18.0399 17 17.7599 17.109 17.546C17.2049 17.3578 17.3579 17.2049 17.546 17.109C17.7599 17 18.0399 17 18.6 17H21.4C21.9601 17 22.2401 17 22.454 17.109C22.6422 17.2049 22.7951 17.3578 22.891 17.546C23 17.7599 23 18.0399 23 18.6V26M19.0177 7.764L12.2354 13.0391C11.782 13.3918 11.5553 13.5681 11.392 13.7889C11.2474 13.9844 11.1396 14.2048 11.074 14.4391C11 14.7035 11 14.9907 11 15.5651V22.8C11 23.9201 11 24.4801 11.218 24.908C11.4097 25.2843 11.7157 25.5903 12.092 25.782C12.5198 26 13.0799 26 14.2 26H25.8C26.9201 26 27.4802 26 27.908 25.782C28.2843 25.5903 28.5903 25.2843 28.782 24.908C29 24.4801 29 23.9201 29 22.8V15.5651C29 14.9907 29 14.7035 28.926 14.4391C28.8604 14.2048 28.7526 13.9844 28.608 13.7889C28.4447 13.5681 28.218 13.3918 27.7646 13.0391L20.9823 7.764C20.631 7.49075 20.4553 7.35412 20.2613 7.3016C20.0902 7.25526 19.9098 7.25526 19.7387 7.3016C19.5447 7.35412 19.369 7.49075 19.0177 7.764Z" stroke="black" stroke-width="2" stroke-linecap="round" stroke-linejoin="round"/>
</svg>
