<svg width="28" height="27" viewBox="0 0 28 27" fill="none" xmlns="http://www.w3.org/2000/svg">
<path d="M12.2441 1.71957C13.0021 0.329687 14.9979 0.32969 15.7559 1.71957L18.5299 6.80605C18.8175 7.3335 19.3271 7.7037 19.9176 7.81429L25.6123 8.88071C27.1684 9.17212 27.7851 11.0702 26.6975 12.2205L22.7172 16.4306C22.3044 16.8672 22.1098 17.4662 22.1871 18.062L22.9327 23.8075C23.1364 25.3775 21.5218 26.5505 20.0916 25.8716L14.8577 23.3871C14.3149 23.1295 13.6851 23.1295 13.1423 23.3871L7.90837 25.8716C6.47818 26.5505 4.86362 25.3775 5.06734 23.8075L5.81287 18.062C5.89019 17.4662 5.69556 16.8672 5.28281 16.4306L1.3025 12.2205C0.214878 11.0701 0.831589 9.17212 2.38768 8.88071L8.08242 7.81429C8.67295 7.7037 9.18248 7.3335 9.47014 6.80605L12.2441 1.71957Z" fill="#F67619"/>
</svg>
