<svg width="32" height="32" viewBox="0 0 32 32" fill="none" xmlns="http://www.w3.org/2000/svg">
    <path
        d="M16 29C23.1797 29 29 23.1797 29 16C29 8.8203 23.1797 3 16 3C8.8203 3 3 8.8203 3 16C3 23.1797 8.8203 29 16 29Z"
        stroke="#000000" stroke-width="2" stroke-linecap="round" stroke-linejoin="round" />
    <path
        d="M15.8334 11V23.6668L9.65134 13.0845C9.54463 12.8712 9.49296 12.6352 9.50077 12.3974C9.50859 12.1597 9.57566 11.9275 9.69616 11.7214C9.81665 11.5153 9.98684 11.3417 10.1916 11.2159C10.3964 11.09 10.6293 11.0159 10.8701 11H15.8334Z"
        stroke="#000000" stroke-width="1.75386" stroke-linecap="round" stroke-linejoin="round" />
    <path
        d="M15.834 23.6668L22.0159 13.0845C22.1226 12.8712 22.1744 12.6352 22.1666 12.3974C22.1588 12.1597 22.0915 11.9275 21.9711 11.7214C21.8506 11.5153 21.6806 11.3417 21.4758 11.2159C21.271 11.09 21.0379 11.0159 20.7972 11H15.834V23.6668Z"
        stroke="#000000" stroke-width="1.75386" stroke-linecap="round" stroke-linejoin="round" />
</svg>